<svg height="34" viewBox="0 0 35 34" width="35" xmlns="http://www.w3.org/2000/svg" xmlns:xlink="http://www.w3.org/1999/xlink"><clipPath id="a"><path d="m193.5-37a1.5 1.5 0 0 0 -1.5 1.5 1.5 1.5 0 0 0 1.5 1.5 1.5 1.5 0 0 0 1.5-1.5 1.493 1.493 0 0 0 -1.5-1.5z"/></clipPath><clipPath id="b"><path d="m0 0h375v-792h-375z"/></clipPath><clipPath id="c"><path d="m177.5-37a1.5 1.5 0 0 0 -1.5 1.5 1.5 1.5 0 0 0 1.5 1.5 1.5 1.5 0 0 0 1.5-1.5 1.493 1.493 0 0 0 -1.5-1.5z"/></clipPath><clipPath id="d"><path d="m176.788-45.67h20.176l.517-.044 9.457-21.267a.716.716 0 0 0 -.411-.96.772.772 0 0 0 -1 .393l-9.062 20.423h-19.814a5.381 5.381 0 0 0 -3.938 2.5 4.826 4.826 0 0 0 -.7 2.88 5.322 5.322 0 0 0 5.459 4.745h20.936a.762.762 0 0 0 .775-.742.762.762 0 0 0 -.775-.742h-20.936a3.806 3.806 0 0 1 -3.923-3.375 3.478 3.478 0 0 1 .5-2.051 3.838 3.838 0 0 1 2.739-1.76z"/></clipPath><g clip-path="url(#a)" transform="translate(-172 68)"><g clip-path="url(#b)"><path d="m187-42h13v13h-13z" fill="#fff"/></g></g><g clip-path="url(#c)" transform="translate(-172 68)"><g clip-path="url(#b)"><path d="m171-42h13v13h-13z" fill="#fff"/></g></g><g clip-path="url(#d)" transform="translate(-172 68)"><g clip-path="url(#b)"><path d="m167-73h45v41h-45z" fill="#fff"/></g></g></svg>