<svg height="19" viewBox="0 0 22 19" width="22" xmlns="http://www.w3.org/2000/svg" xmlns:xlink="http://www.w3.org/1999/xlink"><clipPath id="a"><path d="m264-23a.476.476 0 0 1 -.23-.059 33.442 33.442 0 0 1 -5.352-3.815c-3.6-3.152-5.418-6.268-5.418-9.258a5.467 5.467 0 0 1 5.552-5.868 5.927 5.927 0 0 1 5.448 3.577 5.928 5.928 0 0 1 5.448-3.577 5.467 5.467 0 0 1 5.552 5.868c0 2.991-1.823 6.106-5.418 9.258a33.409 33.409 0 0 1 -5.352 3.815.476.476 0 0 1 -.23.059zm-5.448-18.131a4.612 4.612 0 0 0 -4.635 5c0 6.025 8.559 11.3 10.083 12.19 1.523-.891 10.083-6.169 10.083-12.19a4.612 4.612 0 0 0 -4.635-5 5.107 5.107 0 0 0 -5 4.3.453.453 0 0 1 -.45.352.453.453 0 0 1 -.45-.352 5.107 5.107 0 0 0 -4.996-4.3z"/></clipPath><clipPath id="b"><path d="m0 0h375v-792h-375z"/></clipPath><g clip-path="url(#a)" transform="translate(-253 42)"><g clip-path="url(#b)"><path d="m248-47h32v29h-32z" fill="#949494"/></g></g></svg>