<svg height="22" viewBox="0 0 20 22" width="20" xmlns="http://www.w3.org/2000/svg" xmlns:xlink="http://www.w3.org/1999/xlink"><clipPath id="a"><path clip-rule="evenodd" d="m111.22-24.225q-2.627-.006-5.253-.023a2.052 2.052 0 0 1 -1.832-2.722 2.054 2.054 0 0 1 1.856-1.228h1.209c0-2-.006-4 0-6a6.838 6.838 0 0 1 3.989-6.047l.022-.01a5.886 5.886 0 0 1 .176-1.943 2.829 2.829 0 0 1 2.667-1.8 2.865 2.865 0 0 1 2.773 2.764v.98l.139.063a6.818 6.818 0 0 1 3.873 6.035v5.96a5.137 5.137 0 0 1 2.007.165 2.04 2.04 0 0 1 .665 3.156 2.053 2.053 0 0 1 -1.443.629q-2.608.017-5.217.023a2.588 2.588 0 0 1 -.257.812 2.53 2.53 0 0 1 -2.217 1.411 4.453 4.453 0 0 1 -1.542-.148 2.508 2.508 0 0 1 -1.615-2.077zm4.755.175h-3.916a1.716 1.716 0 0 0 1.608 1.257 3.672 3.672 0 0 0 1.236-.093 1.693 1.693 0 0 0 1.071-1.164zm-1.983-19.16a2.046 2.046 0 0 0 -1.981 1.976v1.239c-.022.329-.135.312-.46.453a6.005 6.005 0 0 0 -3.551 5.348v6.394s-.084.375-.4.4c-1.092 0-2.374-.158-2.73.764a1.236 1.236 0 0 0 1.094 1.606q8.054.15 16.111 0a1.226 1.226 0 0 0 .84-2 1.231 1.231 0 0 0 -.873-.368h-1.6a.378.378 0 0 1 -.4-.4c0-2.131.006-4.261 0-6.391a6.019 6.019 0 0 0 -3.761-5.434.434.434 0 0 1 -.251-.366 3.8 3.8 0 0 0 -.47-2.511 1.978 1.978 0 0 0 -1.569-.71z"/></clipPath><clipPath id="b"><path d="m0 0h375v-792h-375z"/></clipPath><g clip-path="url(#a)" transform="translate(-104 44)"><g clip-path="url(#b)"><path d="m99-49h30v32h-30z" fill="#949494"/></g></g></svg>