<svg height="18" viewBox="0 0 18 18" width="18" xmlns="http://www.w3.org/2000/svg" xmlns:xlink="http://www.w3.org/1999/xlink"><clipPath id="a"><path d="m346.714-390.286h-6.429v-6.429a1.286 1.286 0 0 0 -1.285-1.285 1.286 1.286 0 0 0 -1.286 1.286v6.429h-6.429a1.286 1.286 0 0 0 -1.285 1.285 1.286 1.286 0 0 0 1.286 1.286h6.429v6.429a1.286 1.286 0 0 0 1.285 1.285 1.286 1.286 0 0 0 1.286-1.286v-6.429h6.429a1.286 1.286 0 0 0 1.285-1.285 1.286 1.286 0 0 0 -1.286-1.286z"/></clipPath><clipPath id="b"><path d="m0 0h375v-792h-375z"/></clipPath><g clip-path="url(#a)" transform="translate(-330 398)"><g clip-path="url(#b)"><path d="m325-403h28v28h-28z" fill="#47b6da"/></g></g></svg>