<svg height="22.984" viewBox="0 0 23 22.984" width="23" xmlns="http://www.w3.org/2000/svg" xmlns:xlink="http://www.w3.org/1999/xlink"><clipPath id="a"><path d="m348.5-30a1.5 1.5 0 0 1 -1.5-1.5 1.5 1.5 0 0 1 1.5-1.5 1.5 1.5 0 0 1 1.5 1.5 1.5 1.5 0 0 1 -1.5 1.5z"/></clipPath><clipPath id="b"><path d="m0 0h375v-792h-375z"/></clipPath><path d="m19.25 0h-16.5a2.907 2.907 0 0 0 -2.75 2.742v11.727a2.535 2.535 0 0 0 2.539 2.531h16.922a2.535 2.535 0 0 0 2.539-2.531v-11.812a2.835 2.835 0 0 0 -2.75-2.657z" fill="none" stroke="#949494" stroke-linecap="round" stroke-linejoin="round" transform="translate(.5 5.484)"/><path d="m17 3.82v-1.831c0-1.825-.382-2.351-2.578-1.754-1.613.439-11.05 3.137-11.05 3.137-2.907 1.128-3.35 2.092-3.35 4.283l-.022 1.345" fill="none" stroke="#949494" stroke-linejoin="round" transform="translate(.5 .484)"/><g clip-path="url(#a)" transform="translate(-330.5 45.484)"><g clip-path="url(#b)"><path d="m342-38h13v13h-13z" fill="#949494"/></g></g></svg>