<svg height="19" viewBox="0 0 23 19" width="23" xmlns="http://www.w3.org/2000/svg" xmlns:xlink="http://www.w3.org/1999/xlink"><clipPath id="a"><path d="m34.992-32h-4.984a2.113 2.113 0 0 0 -2.008 2.219v1.562a2.113 2.113 0 0 0 2.008 2.219h4.983a2.113 2.113 0 0 0 2.009-2.219v-1.562a2.113 2.113 0 0 0 -2.008-2.219zm1.008 4.163a.85.85 0 0 1 -.923.837h-5.154a.85.85 0 0 1 -.923-.837v-1.326a.85.85 0 0 1 .923-.837h5.154a.85.85 0 0 1 .923.837zm10.922-7.908-1.1-5.786a.571.571 0 0 0 -.543-.469h-19.558a.523.523 0 0 0 -.548.469l-.939 4.77a3.136 3.136 0 0 0 -.234 1.173 3.19 3.19 0 0 0 1.643 2.815v8.053a1.736 1.736 0 0 0 1.721 1.72h10.952a.617.617 0 0 0 .626-.626v-7.193h3.129v7.193a.617.617 0 0 0 .629.626h1.1a1.736 1.736 0 0 0 1.721-1.72v-8.21a3.266 3.266 0 0 0 1.479-2.502.47.47 0 0 0 -.078-.313zm-2 11.224a.53.53 0 0 1 -.562.521h-.562v-6.769a.61.61 0 0 0 -.643-.6h-4.42a.613.613 0 0 0 -.643.6v6.769h-10.529a.53.53 0 0 1 -.563-.521v-7.215c.161 0 .321.074.482.074a3.6 3.6 0 0 0 2.813-1.338 3.478 3.478 0 0 0 2.812 1.339 3.478 3.478 0 0 0 2.813-1.339 3.478 3.478 0 0 0 2.813 1.339 3.478 3.478 0 0 0 2.812-1.339 3.478 3.478 0 0 0 2.813 1.339 1.684 1.684 0 0 0 .642-.075v7.215zm1-10.512a2.088 2.088 0 0 1 -2.158 2.033 2.088 2.088 0 0 1 -2.156-2.032.612.612 0 0 0 -.639-.6.571.571 0 0 0 -.639.6 2.088 2.088 0 0 1 -2.155 2.032 2.088 2.088 0 0 1 -2.156-2.032.612.612 0 0 0 -.639-.6.571.571 0 0 0 -.639.6 2.088 2.088 0 0 1 -2.155 2.032 2.088 2.088 0 0 1 -2.156-2.032.612.612 0 0 0 -.639-.6c-.4 0-.479.3-.479.6a2.088 2.088 0 0 1 -2.156 2.032 2.088 2.088 0 0 1 -2.156-2.032 2.541 2.541 0 0 1 .16-.753v-.075l.878-4.14h19l.962 4.892z"/></clipPath><clipPath id="b"><path d="m0 0h375v-792h-375z"/></clipPath><g clip-path="url(#a)" transform="translate(-24 42)"><g clip-path="url(#b)"><path d="m19-47h33v29h-33z" fill="#949494"/></g></g></svg>