<svg height="8" viewBox="0 0 6 8" width="6" xmlns="http://www.w3.org/2000/svg" xmlns:xlink="http://www.w3.org/1999/xlink"><clipPath id="a"><path d="m117-314a1 1 0 0 0 -1 1 1 1 0 0 0 1 1 1 1 0 0 0 1-1 1 1 0 0 0 -.293-.707 1 1 0 0 0 -.707-.293zm0 1.5a.5.5 0 0 1 -.5-.5.5.5 0 0 1 .5-.5.5.5 0 0 1 .5.5.5.5 0 0 1 -.5.5z"/></clipPath><clipPath id="b"><path d="m0 0h375v-792h-375z"/></clipPath><clipPath id="c"><path d="m117-316a3.061 3.061 0 0 0 -3 3.118c0 2.668 2.727 4.683 2.844 4.768l.156.114.156-.113c.117-.085 2.844-2.1 2.844-4.768a3.061 3.061 0 0 0 -3-3.119zm0 7.3c-.564-.459-2.454-2.155-2.454-4.181a2.5 2.5 0 0 1 2.454-2.552 2.5 2.5 0 0 1 2.454 2.551c0 2.027-1.89 3.723-2.454 4.182z"/></clipPath><g clip-path="url(#a)" transform="translate(-114 316)"><g clip-path="url(#b)"><path d="m111-319h12v12h-12z" fill="#474748"/></g></g><g clip-path="url(#c)" transform="translate(-114 316)"><g clip-path="url(#b)"><path d="m109-321h16v18h-16z" fill="#474748"/></g></g></svg>