<svg height="17.523" viewBox="0 0 17.525 17.523" width="17.525" xmlns="http://www.w3.org/2000/svg" xmlns:xlink="http://www.w3.org/1999/xlink"><clipPath id="a"><path d="m43.842-647.541a.609.609 0 0 1 -.437-.18l-5.271-5.272a6.635 6.635 0 0 1 -4.34 1.581 6.826 6.826 0 0 1 -6.69-5.32 6.826 6.826 0 0 1 3.748-7.681 6.826 6.826 0 0 1 8.31 2 6.826 6.826 0 0 1 -.156 8.545l5.273 5.273a.617.617 0 0 1 .134.673.617.617 0 0 1 -.571.381zm-10.042-16.224a5.563 5.563 0 0 0 -5.564 5.562 5.563 5.563 0 0 0 5.561 5.564 5.563 5.563 0 0 0 5.565-5.561 5.569 5.569 0 0 0 -5.562-5.565z"/></clipPath><clipPath id="b"><path d="m0 0h375v-792h-375z"/></clipPath><g clip-path="url(#a)" transform="translate(-26.935 665.064)"><g clip-path="url(#b)"><path d="m21.935-670.064h27.525v27.523h-27.525z" fill="#444"/></g></g></svg>